<svg width="103" height="120" viewBox="0 0 103 120" fill="none" xmlns="http://www.w3.org/2000/svg">
<g clip-path="url(#clip0_37_184)">
<path fill-rule="evenodd" clip-rule="evenodd" d="M4.29172 19.2857V32.1429C4.29172 33.4286 3.43339 34.2857 2.14589 34.2857C0.858391 34.2857 5.78463e-05 33.4286 5.78463e-05 32.1429V18.6429C5.78463e-05 17.1429 0.643801 15.6429 1.50213 14.3572C3.86255 11.5715 9.65631 4.92857 12.4459 2.14286C13.7334 0.642857 15.4501 0 17.3813 0H77.0355C80.6834 0 83.6876 3 83.6876 6.42857V17.1429C94.4167 18.2143 103 27.4286 103 38.5714C103 48.2143 96.7771 56.3571 87.9792 58.9286V66.4286C89.2667 66.4286 90.1251 67.2857 90.1251 68.5714V87.8571C90.1251 89.1429 89.2667 90 87.9792 90C86.6917 90 85.8334 89.1429 85.8334 87.8571V70.7143H77.2501V96.4286C77.2501 98.7857 79.1813 100.714 81.5417 100.714C83.9021 100.714 85.8334 98.7857 85.8334 96.4286C85.8334 95.1429 86.6917 94.2857 87.9792 94.2857C89.2667 94.2857 90.1251 95.1429 90.1251 96.4286C90.1251 100.5 87.3355 103.714 83.6876 104.786V113.571C83.6876 117 80.6834 120 77.0355 120H6.43756C2.78964 120 -0.214539 117 -0.214539 113.571V40.7143C-0.214539 39.4286 0.643795 38.5714 1.93129 38.5714C3.21879 38.5714 4.07713 39.4286 4.07713 40.7143V113.571C4.07713 114.857 5.15006 115.714 6.43756 115.714H77.0355C78.323 115.714 79.3959 114.857 79.3959 113.571V104.786C75.748 103.929 72.9584 100.5 72.9584 96.4286V68.5714C72.9584 67.2857 73.8167 66.4286 75.1042 66.4286V58.9286C66.3063 56.1429 60.0834 48 60.0834 38.5714C60.0834 27.4286 68.6667 18.4286 79.3959 17.1429V6.42857C79.3959 5.14286 78.323 4.28571 77.0355 4.28571H21.4584V17.1429C21.4584 18.4286 20.6001 19.2857 19.3126 19.2857H4.29172ZM23.6042 90C23.6042 88.7143 22.7459 87.8571 21.4584 87.8571H12.8751C11.5876 87.8571 10.7292 88.7143 10.7292 90V98.5714C10.7292 99.8571 11.5876 100.714 12.8751 100.714H21.4584C22.7459 100.714 23.6042 99.8571 23.6042 98.5714V90ZM62.2292 92.1429H55.7917C54.5042 92.1429 53.6459 93 53.6459 94.2857C53.6459 95.5714 54.5042 96.4286 55.7917 96.4286H62.2292C63.5167 96.4286 64.3751 95.5714 64.3751 94.2857C64.3751 93 63.5167 92.1429 62.2292 92.1429ZM47.2084 92.1429H30.0417C28.7542 92.1429 27.8959 93 27.8959 94.2857C27.8959 95.5714 28.7542 96.4286 30.0417 96.4286H47.2084C48.4959 96.4286 49.3542 95.5714 49.3542 94.2857C49.3542 93 48.4959 92.1429 47.2084 92.1429ZM15.0209 92.1429V96.4286H19.3126V92.1429H15.0209ZM23.6042 70.7143C23.6042 69.4286 22.7459 68.5714 21.4584 68.5714H12.8751C11.5876 68.5714 10.7292 69.4286 10.7292 70.7143V79.2857C10.7292 80.5714 11.5876 81.4286 12.8751 81.4286H21.4584C22.7459 81.4286 23.6042 80.5714 23.6042 79.2857V70.7143ZM62.2292 72.8571H55.7917C54.5042 72.8571 53.6459 73.7143 53.6459 75C53.6459 76.2857 54.5042 77.1429 55.7917 77.1429H62.2292C63.5167 77.1429 64.3751 76.2857 64.3751 75C64.3751 73.7143 63.5167 72.8571 62.2292 72.8571ZM47.2084 72.8571H30.0417C28.7542 72.8571 27.8959 73.7143 27.8959 75C27.8959 76.2857 28.7542 77.1429 30.0417 77.1429H47.2084C48.4959 77.1429 49.3542 76.2857 49.3542 75C49.3542 73.7143 48.4959 72.8571 47.2084 72.8571ZM15.0209 72.8571V77.1429H19.3126V72.8571H15.0209ZM83.6876 60H79.3959V66.4286H83.6876V60ZM23.6042 51.4286C23.6042 50.1429 22.7459 49.2857 21.4584 49.2857H12.8751C11.5876 49.2857 10.7292 50.1429 10.7292 51.4286V60C10.7292 61.2857 11.5876 62.1429 12.8751 62.1429H21.4584C22.7459 62.1429 23.6042 61.2857 23.6042 60V51.4286ZM62.2292 53.5714H55.7917C54.5042 53.5714 53.6459 54.4286 53.6459 55.7143C53.6459 57 54.5042 57.8571 55.7917 57.8571H62.2292C63.5167 57.8571 64.3751 57 64.3751 55.7143C64.3751 54.4286 63.5167 53.5714 62.2292 53.5714ZM47.2084 53.5714H30.0417C28.7542 53.5714 27.8959 54.4286 27.8959 55.7143C27.8959 57 28.7542 57.8571 30.0417 57.8571H47.2084C48.4959 57.8571 49.3542 57 49.3542 55.7143C49.3542 54.4286 48.4959 53.5714 47.2084 53.5714ZM15.0209 53.5714V57.8571H19.3126V53.5714H15.0209ZM81.5417 21.4286C90.9834 21.4286 98.7084 29.1429 98.7084 38.5714C98.7084 48 90.9834 55.7143 81.5417 55.7143C72.1001 55.7143 64.3751 48 64.3751 38.5714C64.3751 29.1429 72.1001 21.4286 81.5417 21.4286ZM81.5417 25.7143C74.4605 25.7143 68.6667 31.5 68.6667 38.5714C68.6667 45.6429 74.4605 51.4286 81.5417 51.4286C88.623 51.4286 94.4167 45.6429 94.4167 38.5714C94.4167 31.5 88.623 25.7143 81.5417 25.7143ZM81.5417 30C86.2626 30 90.1251 33.8571 90.1251 38.5714C90.1251 43.2857 86.2626 47.1429 81.5417 47.1429C76.8209 47.1429 72.9584 43.2857 72.9584 38.5714C72.9584 33.8571 76.8209 30 81.5417 30ZM79.3959 36.4286V35.3571C79.3959 34.0714 80.2542 33.2143 81.5417 33.2143C82.8292 33.2143 83.6876 34.0714 83.6876 35.3571V36.4286H84.7605C86.048 36.4286 86.9063 37.2857 86.9063 38.5714C86.9063 39.8571 86.048 40.7143 84.7605 40.7143H83.6876V41.7857C83.6876 43.0714 82.8292 43.9286 81.5417 43.9286C80.2542 43.9286 79.3959 43.0714 79.3959 41.7857V40.7143H78.323C77.0355 40.7143 76.1771 39.8571 76.1771 38.5714C76.1771 37.2857 77.0355 36.4286 78.323 36.4286H79.3959ZM25.1063 31.5C22.9605 27.2143 23.3896 22.9286 25.5355 20.7857C27.4667 18.8572 31.1146 18.4286 33.9042 20.5714C36.6938 18.4286 40.1271 18.8572 42.273 20.7857C44.4188 22.9286 44.848 27.2143 42.7021 31.5C41.4146 34.2857 37.9813 37.0714 34.9771 38.7857C34.3334 39.2143 33.4751 39.2143 32.6167 38.7857C29.8271 37.0714 26.3938 34.2857 25.1063 31.5ZM33.9042 34.5C35.8355 33.2143 37.9813 31.5 38.8397 29.5714C39.4834 28.2857 39.9126 27 39.9126 25.9286C39.9126 25.0714 39.698 24.4286 39.2688 24C38.4105 23.1429 36.6938 23.3572 35.8355 25.0715C35.4063 25.7143 34.7626 26.1429 33.9042 26.1429C33.0459 26.1429 32.4021 25.7143 31.973 25.0715C31.1146 23.3572 29.398 23.1429 28.5396 24C28.1105 24.4286 27.8959 25.0714 27.8959 25.9286C27.8959 27 28.3251 28.2857 28.9688 29.5714C29.8271 31.5 31.973 33.2143 33.9042 34.5ZM17.1667 4.28571C16.523 4.28571 16.0938 4.71427 15.6646 5.14284L6.86672 15H17.1667V4.28571Z" fill="white"/>
</g>
<defs>
<clipPath id="clip0_37_184">
<rect width="103" height="120" fill="white"/>
</clipPath>
</defs>
</svg>
