<svg width="101" height="104" viewBox="0 0 101 104" fill="none" xmlns="http://www.w3.org/2000/svg">
<path fill-rule="evenodd" clip-rule="evenodd" d="M41.7392 27.4677L45.0518 24.1847L48.3651 27.4677C50.0068 29.0956 50.9111 31.2585 50.9111 33.5611C50.9111 35.8628 50.0068 38.0258 48.3651 39.6536L45.0518 42.9367L41.7392 39.6536C40.0967 38.0258 39.1932 35.8628 39.1932 33.5611C39.1932 31.2585 40.0967 29.0956 41.7392 27.4677ZM56.2085 13.1274L59.521 9.84438L62.8343 13.1274C66.2232 16.4869 66.2232 21.9539 62.8343 25.3133L59.521 28.5964L56.2085 25.3133C54.566 23.6855 53.6617 21.5218 53.6617 19.2208C53.6617 16.919 54.566 14.7553 56.2085 13.1274ZM71.7528 15.6913C71.7528 10.9411 75.6532 7.0746 80.4469 7.0746H85.132V11.7187C85.132 16.4689 81.2315 20.3346 76.4379 20.3346H71.7528V15.6913ZM78.4683 35.1889C76.8258 36.8168 74.6435 37.713 72.3202 37.713C69.9977 37.713 67.8153 36.8168 66.1728 35.1889L62.8603 31.9059L66.1728 28.6221C67.8153 26.995 69.9977 26.0988 72.3202 26.0988C74.6435 26.0988 76.8258 26.995 78.4683 28.6221L81.7809 31.9059L78.4683 35.1889ZM56.1817 31.9067L55.5812 32.5018C55.545 32.0408 55.4876 31.5845 55.4034 31.1345L56.1817 31.9051V31.9059V31.9067ZM59.5202 35.2162H59.521H59.5218L60.2994 35.9869C59.8453 35.9034 59.3848 35.8465 58.9197 35.8106L59.5202 35.2162ZM63.9991 49.5292C62.3566 51.1571 60.1742 52.0533 57.8518 52.0533C55.5285 52.0533 53.3461 51.1571 51.7036 49.5292L48.3911 46.2462L51.7036 42.9624C53.3461 41.3353 55.5285 40.4391 57.8518 40.4391C60.1742 40.4391 62.3566 41.3353 63.9991 42.9624L67.3116 46.2462L63.9991 49.5292ZM40.1219 44.935L41.5448 46.4131L41.4622 46.495L44.7338 49.8709L44.8046 49.8007L45.993 51.037C45.9364 51.0237 45.8805 51.0081 45.823 50.9948L57.2741 62.8126L57.2993 62.7884L64.0629 69.8194L96.9246 103.734L100.22 100.62L57.9903 56.7263C61.5224 56.6904 64.8381 55.3176 67.3376 52.838L73.9902 46.2462L69.8726 42.1652C70.673 42.3103 71.4899 42.393 72.3202 42.393C75.9043 42.393 79.2735 41.0101 81.8069 38.4985L88.4595 31.9059L81.8069 25.3133C81.4488 24.9584 81.0702 24.6316 80.6798 24.3227C86.0024 22.5576 89.8541 17.5796 89.8541 11.7187V2.3946H80.4469C74.4821 2.3946 69.4201 6.2751 67.68 11.6204C67.2353 10.9886 66.7411 10.3818 66.1728 9.81864L59.521 3.2253L52.87 9.81864C50.335 12.3295 48.9396 15.6686 48.9396 19.2208C48.9396 20.0437 49.023 20.8541 49.1694 21.6466L45.0518 17.5656L38.4007 24.1589C36.1585 26.3796 34.8127 29.25 34.531 32.3411L3.41721 0L0 3.22998L29.0494 33.4253L28.9219 33.5525L40.1825 45.1737C40.1621 45.0941 40.1447 45.0138 40.1219 44.935Z" fill="#A8A9B7"/>
<path fill-rule="evenodd" clip-rule="evenodd" d="M48.9737 64.4211C47.3312 66.0489 45.1488 66.9444 42.8256 66.9444C40.5031 66.9444 38.3207 66.0489 36.6782 64.4211L33.3657 61.138L36.6782 57.8542C38.3018 56.2459 40.4551 55.3543 42.7477 55.3348L35.881 48.3562C35.881 48.3889 35.8857 48.4201 35.8857 48.4521C35.8857 50.7547 34.9814 52.9176 33.3397 54.5455L30.0264 57.8285L26.7139 54.5455C25.0714 52.9176 24.1671 50.7547 24.1671 48.4521C24.1671 46.1503 25.0714 43.9874 26.7139 42.3595L28.3666 40.7208L25.0698 37.3699L23.3753 39.0508C20.8404 41.5608 19.445 44.9008 19.445 48.4521C19.445 52.0042 20.8404 55.3434 23.3753 57.8542L26.6871 61.1373V61.138V61.1388L6.65369 80.9937L9.9922 84.3025L30.0256 64.4476H30.0264H30.0272L33.3397 67.7298C35.8731 70.2422 39.2423 71.6244 42.8256 71.6244C46.4096 71.6244 49.7788 70.2422 52.3122 67.7298L53.6462 66.4085L50.3486 63.0584L48.9737 64.4211Z" fill="#A8A9B7"/>
</svg>
