<svg width="101" height="108" viewBox="0 0 101 108" fill="none" xmlns="http://www.w3.org/2000/svg">
<g clip-path="url(#clip0_122_245)">
<path fill-rule="evenodd" clip-rule="evenodd" d="M35.7745 86.9266C33.1986 86.9266 30.906 85.6883 29.4878 83.5294C28.0853 81.3973 27.8414 78.833 28.8102 76.4788L38.9666 57.4039L35.4919 53.8723L24.5949 74.3404L24.506 74.5261C22.8824 78.3391 23.2712 82.6807 25.5464 86.1411C27.8217 89.6024 31.645 91.6681 35.7745 91.6681H72.6846L68.0192 86.9266H35.7745Z" fill="#A8A9B7"/>
<path fill-rule="evenodd" clip-rule="evenodd" d="M49.5165 37.5872C50.1618 36.3749 50.5034 35.0078 50.5034 33.6328V9.3067C50.5034 8.07787 49.8392 6.95652 48.7751 6.38201C48.114 6.02324 48.1337 5.64313 48.1439 5.46059C48.1652 5.071 48.5493 4.74146 48.9829 4.74146H64.5343C64.9955 4.74146 65.4165 5.06388 65.4527 5.44557C65.4952 5.89601 65.1891 6.21606 64.8664 6.29745C63.3656 6.67598 62.3118 8.00201 62.3039 9.52165L62.1717 33.5577C62.1638 34.9896 62.5242 36.4081 63.2137 37.6607L84.5889 76.4924C85.5515 78.8434 85.3051 81.4015 83.9058 83.5296C83.3368 84.3965 82.6206 85.1069 81.8069 85.6561L44.7181 46.5991L49.5165 37.5872ZM97.0788 108.055L100.22 105.046L85.0903 89.1142C86.1512 88.2947 87.0869 87.2982 87.8472 86.1413C90.1224 82.6809 90.5112 78.3385 88.8884 74.5263L67.3471 35.3666C67.0472 34.8221 66.8906 34.2057 66.8937 33.5838L67.0204 10.5379C69.0997 9.56353 70.3794 7.3793 70.1535 4.99671C69.8875 2.19451 67.4195 0 64.5343 0H48.9829C46.0277 0 43.5887 2.2838 43.4297 5.20139C43.3235 7.14618 44.1892 8.91474 45.7813 10.0796V33.6328C45.7813 34.2302 45.6326 34.8245 45.3524 35.3516L41.2875 42.9861L3.41721 3.10487L0 6.37727L5.81917 12.5048L5.25016 11.4585L97.0788 108.055Z" fill="#A8A9B7"/>
</g>
<defs>
<clipPath id="clip0_122_245">
<rect width="101" height="108" fill="white"/>
</clipPath>
</defs>
</svg>
