<svg width="114" height="120" viewBox="0 0 114 120" fill="none" xmlns="http://www.w3.org/2000/svg">
<path d="M57 120C54.5745 120 52.1489 119.4 49.966 118.2L7.51915 95.16C2.91064 92.64 0 87.84 0 82.56V37.44C0 32.16 2.91064 27.36 7.51915 24.84L49.966 1.8C54.3319 -0.6 59.5468 -0.6 63.9128 1.8L106.36 24.84C110.968 27.36 113.879 32.16 113.879 37.44V82.56C113.879 87.84 110.968 92.64 106.36 95.16L63.9128 118.2C61.8511 119.4 59.4255 120 57 120ZM57 4.8C55.4234 4.8 53.8468 5.16 52.2702 6L9.8234 29.04C6.67021 30.72 4.85106 33.96 4.85106 37.44V82.56C4.85106 86.04 6.79149 89.28 9.8234 90.96L52.2702 114C55.1808 115.56 58.6979 115.56 61.6085 114L104.055 90.96C107.209 89.28 109.149 86.04 109.149 82.56V37.44C109.149 33.96 107.209 30.72 104.055 29.04L61.6085 6C60.1532 5.16 58.5766 4.8 57 4.8Z" fill="white"/>
<path d="M68.6426 50.28H52.2702C50.9362 50.28 49.8447 49.2 49.8447 47.88C49.8447 46.56 50.9362 45.48 52.2702 45.48H68.5213C69.8553 45.48 70.9468 46.56 70.9468 47.88C70.9468 49.2 69.9766 50.28 68.6426 50.28Z" fill="white"/>
<path d="M72.8872 98.7599H41.2341C39.1724 98.7599 37.1106 98.0399 35.6553 96.8399C34.0787 95.5199 33.1085 93.5999 33.1085 91.6799C33.1085 90.4799 33.4724 89.2799 34.0787 88.3199L48.5106 66.7199V55.0799C48.5106 53.7599 49.6021 52.6799 50.9362 52.6799C52.2702 52.6799 53.3617 53.7599 53.3617 55.0799V67.4399C53.3617 67.9199 53.2404 68.3999 52.9979 68.7599L38.0809 90.7199C37.9596 90.9599 37.8383 91.1999 37.8383 91.5599C37.8383 92.2799 38.3234 92.8799 38.6872 93.1199C39.2936 93.5999 40.2638 93.9599 41.1128 93.9599H72.766C73.3723 93.9599 73.8575 93.8399 74.3426 93.5999C75.1915 93.2399 75.6766 92.7599 75.9192 92.0399C76.0404 91.5599 76.0404 91.0799 75.6766 90.5999L61.1234 68.6399C60.3958 67.5599 60.6383 65.9999 61.8511 65.2799C62.9426 64.5599 64.5192 64.7999 65.2468 65.9999L80.0426 88.1999C81.1341 89.9999 81.3766 91.9199 80.7702 93.7199C80.1638 95.6399 78.5872 97.3199 76.5255 98.1599C75.3128 98.5199 74.1 98.7599 72.8872 98.7599Z" fill="white"/>
<path d="M63.0638 60.8399C61.7298 60.8399 60.6383 59.7599 60.6383 58.4399V49.0799C60.6383 47.7599 61.7298 46.6799 63.0638 46.6799C64.3979 46.6799 65.4894 47.7599 65.4894 49.0799V58.4399C65.4894 59.7599 64.3979 60.8399 63.0638 60.8399Z" fill="white"/>
<path d="M53.1192 82.6799C52.9979 82.6799 52.8766 82.6799 52.7553 82.6799C47.5404 82.5599 44.8724 79.6799 43.9021 78.5999C43.9021 78.5999 43.9021 78.4799 43.7809 78.4799C43.0532 77.9999 42.6894 77.2799 42.6894 76.4399C42.6894 75.1199 43.7809 74.0399 45.1149 74.0399C46.3277 74.0399 46.9341 74.7599 47.4192 75.3599C48.2681 76.3199 49.7234 77.7599 52.7553 77.8799C54.817 77.8799 56.5149 77.0399 58.5766 76.0799C61.0021 74.8799 63.7915 73.5599 67.6723 73.5599C69.0064 73.5599 70.0979 74.6399 70.0979 75.9599C70.0979 77.2799 69.0064 78.3599 67.6723 78.3599C65.0043 78.3599 62.9426 79.3199 60.7596 80.3999C58.5766 81.4799 56.1511 82.6799 53.1192 82.6799Z" fill="white"/>
<path d="M56.8787 49.5599C55.5447 49.5599 54.4532 48.4799 54.4532 47.1599V36.6C54.4532 35.28 55.5447 34.2 56.8787 34.2C58.2128 34.2 59.3042 35.28 59.3042 36.6V47.1599C59.3042 48.4799 58.2128 49.5599 56.8787 49.5599Z" fill="white"/>
<path d="M60.2745 38.4C57.4851 38.4 54.817 36.48 54.0894 33.72C53.8468 32.64 53.8468 31.44 54.0894 30.36C55.0596 26.76 56.7574 23.76 58.9404 21.48C64.7617 15.72 73.8574 15.72 74.3426 15.72C75.6766 15.72 76.7681 16.8 76.7681 18.12C76.7681 18.48 76.7681 27.6 70.9468 33.36C68.6425 35.64 65.7319 37.2 61.9723 38.16C61.366 38.28 60.8808 38.4 60.2745 38.4ZM71.6745 20.76C69.1277 21.12 65.1255 22.2 62.4574 24.84C60.7596 26.52 59.5468 28.68 58.8191 31.56C58.6979 31.8 58.6979 32.16 58.8191 32.4C59.0617 33.24 59.9106 33.72 60.7596 33.48C63.5489 32.76 65.8532 31.56 67.5511 29.88C70.2191 27.24 71.1894 23.4 71.6745 20.76Z" fill="white"/>
<path d="M53.483 43.68C52.9979 43.68 52.5128 43.56 52.0277 43.44C49.3596 42.6 47.0553 41.28 45.3574 39.36C41.234 34.68 41.234 27.24 41.234 27C41.234 25.68 42.3255 24.6 43.6596 24.6C44.0234 24.6 50.6936 24.6 55.0596 29.52C56.6362 31.32 57.8489 33.84 58.5766 36.72C59.0617 38.76 58.4553 40.92 56.8787 42.36C55.9085 43.2 54.6957 43.68 53.483 43.68ZM46.3277 29.76C46.6915 31.68 47.4191 34.32 48.9957 36.12C50.0872 37.32 51.5426 38.28 53.3617 38.76C53.483 38.76 53.483 38.76 53.6043 38.64C53.7255 38.52 53.8468 38.28 53.7255 37.8C53.2404 35.64 52.3915 33.84 51.3 32.64C49.8447 30.96 47.9043 30.24 46.3277 29.76Z" fill="white"/>
<path d="M65.2468 87.4799C66.6534 87.4799 67.7936 86.3517 67.7936 84.96C67.7936 83.5682 66.6534 82.4399 65.2468 82.4399C63.8402 82.4399 62.7 83.5682 62.7 84.96C62.7 86.3517 63.8402 87.4799 65.2468 87.4799Z" fill="white"/>
<path d="M47.9043 91.44C49.3108 91.44 50.4511 90.3118 50.4511 88.92C50.4511 87.5283 49.3108 86.4 47.9043 86.4C46.4977 86.4 45.3575 87.5283 45.3575 88.92C45.3575 90.3118 46.4977 91.44 47.9043 91.44Z" fill="white"/>
<path d="M95.566 100.8C94.9596 100.8 94.3532 100.56 93.8681 100.08L16.4936 23.6401C15.5234 22.6801 15.5234 21.2401 16.4936 20.2801C17.4638 19.3201 18.9192 19.3201 19.8894 20.2801L97.2638 96.84C98.234 97.8 98.234 99.2401 97.2638 100.2C96.9 100.56 96.2936 100.8 95.566 100.8Z" fill="white"/>
</svg>
