<svg width="108" height="109" viewBox="0 0 108 109" fill="none" xmlns="http://www.w3.org/2000/svg">
<g clip-path="url(#clip0_36_182)">
<path d="M7.37201 75.3838V97.4998L0.737201 104.135C0.368601 104.503 0 105.24 0 105.609C0 106.346 0.368601 106.715 0.737201 107.083C1.1058 107.452 1.843 107.821 2.2116 107.821C2.94881 107.821 3.31741 107.452 3.68601 107.083L10.3208 100.449H32.4369C73.7201 100.449 107.263 66.5373 107.631 25.2541V2.40081C108 1.29501 106.894 0.189209 105.42 0.189209H82.198C41.2833 0.189209 7.37201 34.1005 7.37201 75.3838ZM82.5666 4.61242H103.208V25.2541C103.208 64.3257 71.5085 96.0254 32.8055 96.0254H15.1126L25.4334 85.7046H50.1297C51.2355 85.7046 52.3413 84.5988 52.3413 83.493C52.3413 82.3872 51.6041 81.2814 50.1297 81.2814H29.8567L47.5495 63.5885H75.9317C77.0376 63.5885 78.1433 62.4827 78.1433 61.3769C78.1433 60.2711 77.4062 59.1653 75.9317 59.1653H51.9727L69.2969 41.4725H90.3072C91.413 41.4725 92.5188 40.3667 92.5188 39.2609C92.5188 38.1551 92.1502 37.0493 90.6758 37.0493H74.0887L88.4642 22.6739C88.8328 22.3053 89.2014 21.568 89.2014 21.1994C89.2014 20.8308 88.8328 20.0936 88.4642 19.725C87.727 18.9878 85.884 18.9878 85.1468 19.725L70.7713 34.1005V17.1448C71.1399 16.039 70.0341 14.9332 68.5597 14.9332C67.0853 14.9332 66.3481 16.039 66.3481 17.1448V38.1551L49.0239 55.8479V31.8889C49.0239 30.7831 47.9181 29.6773 46.4437 29.6773C44.9693 29.6773 44.2321 30.7831 44.2321 31.8889V60.2711L26.5392 77.964V57.6909C26.9079 56.5851 25.802 55.4793 24.3276 55.4793C22.8532 55.4793 22.116 56.5851 22.116 57.6909V82.3872L11.7952 92.708V75.0152C12.1638 36.3121 43.4949 4.98102 82.5666 4.61242Z" fill="white"/>
</g>
<defs>
<clipPath id="clip0_36_182">
<rect width="108" height="108" fill="white" transform="translate(0 0.189209)"/>
</clipPath>
</defs>
</svg>
