<svg width="101" height="105" viewBox="0 0 101 105" fill="none" xmlns="http://www.w3.org/2000/svg">
<mask id="mask0_122_216" style="mask-type:alpha" maskUnits="userSpaceOnUse" x="0" y="0" width="101" height="105">
<path d="M0 0.668457H100.22V104.222H0V0.668457Z" fill="white"/>
</mask>
<g mask="url(#mask0_122_216)">
<path fill-rule="evenodd" clip-rule="evenodd" d="M37.9112 36.4206V20.3882C37.9112 19.8376 38.3637 19.3903 38.9209 19.3903H64.4469C65.0041 19.3903 65.4567 19.8376 65.4567 20.3882V64.9712L37.9112 36.4206ZM45.7813 13.9459H58.3735C59.17 13.9459 59.898 14.2391 60.4536 14.7237H43.7013C44.2569 14.2391 44.9849 13.9459 45.7813 13.9459ZM49.7164 9.27923H55.2255V6.16812H49.7164V9.27923ZM70.1787 20.3882C70.1787 17.7741 68.3757 15.5738 65.9352 14.9236C65.1356 12.1593 62.828 10.0158 59.9476 9.43557V4.59468C59.9476 2.88901 58.5435 1.50146 56.8168 1.50146H48.1251C46.3983 1.50146 44.9943 2.88901 44.9943 4.59468V9.31812C41.8101 9.63235 39.1791 11.8296 38.2606 14.7641C35.4109 15.0885 33.1891 17.4856 33.1891 20.3882V31.5268L3.41721 0.668457L0 3.88923L33.1891 38.2888V38.3222L37.9112 43.216V43.1826L65.4567 71.7332V71.7667L70.1787 76.6605V76.627L96.8026 104.223L100.22 101.002L70.1787 69.865V20.3882Z" fill="#A8A9B7"/>
<path fill-rule="evenodd" clip-rule="evenodd" d="M64.4466 81.6121H38.9207C38.3635 81.6121 37.9109 81.1648 37.9109 80.6142V55.6172L33.1888 51.1753V80.6142C33.1888 83.7369 35.7608 86.2787 38.9207 86.2787H64.4466C66.0868 86.2787 67.5648 85.5904 68.6107 84.4945L65.1896 81.2768C65.0046 81.4791 64.7441 81.6121 64.4466 81.6121Z" fill="#A8A9B7"/>
<path fill-rule="evenodd" clip-rule="evenodd" d="M69.3917 7.33464H77.2619V2.66797H69.3917V7.33464Z" fill="#A8A9B7"/>
<path fill-rule="evenodd" clip-rule="evenodd" d="M78.347 12.1037L68.6596 9.17065L67.2769 13.632L76.9634 16.565L78.347 12.1037Z" fill="#A8A9B7"/>
</g>
</svg>
