<svg width="102" height="107" viewBox="0 0 102 107" fill="none" xmlns="http://www.w3.org/2000/svg">
<path fill-rule="evenodd" clip-rule="evenodd" d="M44.1258 72.628V64.4857L39.7051 59.998V72.628H44.1258Z" fill="#A8A9B7"/>
<path fill-rule="evenodd" clip-rule="evenodd" d="M22.139 44.1289H16.4227V72.6282H20.996V52.2609L28.5022 72.6282H31.8936L37.5924 57.8534L34.3591 54.5721L30.2174 65.5606L22.139 44.1289Z" fill="#A8A9B7"/>
<path fill-rule="evenodd" clip-rule="evenodd" d="M70.9488 40.2534L63.3799 47.5857L64.2987 49.8231H76.8153V46.7503H68.3808L72.8953 42.4639C75.5984 39.9569 76.8423 37.9081 76.8423 35.6437C76.8423 33.8373 76.274 32.3544 75.112 31.1687C73.9492 30.0091 72.4089 29.4163 70.4894 29.4163C67.5971 29.4163 65.4345 31.1148 64.2446 33.6757L66.4613 35.6167C67.1099 33.8643 68.7051 32.4091 70.4354 32.4091C72.3548 32.4091 73.6519 33.892 73.6519 35.5898C73.6519 37.0719 72.7602 38.6357 70.9488 40.2534Z" fill="#A8A9B7"/>
<path fill-rule="evenodd" clip-rule="evenodd" d="M84.783 17.8889V85.8538L67.1415 67.403V53.6285H63.1023V55.4903C61.4635 54.0462 59.5202 53.3242 57.2716 53.3242C56.1613 53.3242 55.1249 53.4938 54.1504 53.8164L19.7982 17.8889H84.783ZM57.6945 57.5233C59.0751 57.6121 60.2697 58.1376 61.2727 59.1386C62.294 60.192 62.821 61.4586 62.8647 62.9304L57.6945 57.5233ZM98.0014 106.089L101.212 103.037L89.5519 90.8416V13.1334H15.2519L3.45141 0.792725L0.000366211 4.07406L98.0014 106.089Z" fill="#A8A9B7"/>
<path fill-rule="evenodd" clip-rule="evenodd" d="M9.27652 93.1852V29.1128L4.50769 24.2725V97.9408H77.0861L72.4008 93.1852H9.27652Z" fill="#A8A9B7"/>
</svg>
