<svg width="284" height="106" viewBox="0 0 284 106" fill="none" xmlns="http://www.w3.org/2000/svg">
<path d="M30.9139 5.8663C42.6962 5.8663 53.0203 14.1721 55.4118 25.6723C55.7618 27.2405 57.2783 28.286 58.9115 27.9375C60.4863 27.589 61.5363 26.0789 61.1863 24.4526C58.2116 10.2805 45.496 0 30.9139 0C13.8821 0 0 13.8236 0 30.7836V103.038C0 104.664 1.34155 105.942 2.91641 105.942C4.49127 105.942 5.83282 104.606 5.83282 103.038V48.8471C11.4323 56.5721 20.5899 61.6252 30.9139 61.6252C44.6211 61.6252 56.52 52.8548 60.4863 39.8444C60.953 38.2762 60.0781 36.6499 58.5615 36.1852C56.9867 35.7205 55.3535 36.5918 54.8868 38.1019C51.6788 48.6729 42.0546 55.7589 30.9139 55.7589C17.0902 55.7589 5.83282 44.549 5.83282 30.7836C5.83282 17.0181 17.0902 5.8663 30.9139 5.8663Z" fill="black"/>
<path d="M240.079 0C229.113 0 218.847 5.8663 213.306 15.3337C212.49 16.7277 212.956 18.5282 214.356 19.3414C215.756 20.1545 217.564 19.6899 218.381 18.2959C222.872 10.629 231.155 5.8663 240.079 5.8663C252.911 5.8663 263.527 15.5079 264.985 27.8795H212.081C210.448 27.8795 209.165 29.2153 209.165 30.7836C209.165 47.7436 223.047 61.5671 240.079 61.5671C250.345 61.5671 259.969 56.514 265.743 47.9759C266.677 46.64 266.327 44.8395 264.927 43.9101C263.585 42.9808 261.777 43.3293 260.844 44.7233C256.177 51.6351 248.42 55.7008 240.079 55.7008C227.247 55.7008 216.631 46.0592 215.173 33.6877H268.076C269.71 33.6877 270.993 32.3518 270.993 30.7836C270.993 13.8236 257.111 0 240.079 0Z" fill="black"/>
<path d="M188.108 1.10356H184.609C172.302 1.10356 162.269 11.0937 162.269 23.349V56.2816C162.269 57.9079 163.611 59.1858 165.185 59.1858C166.819 59.1858 168.102 57.8499 168.102 56.2816V23.349C168.102 14.3463 175.451 6.96986 184.55 6.96986H188.05C189.683 6.96986 190.967 5.63397 190.967 4.06575C190.967 2.49753 189.742 1.10356 188.108 1.10356Z" fill="black"/>
<path d="M137.305 1.10356C135.671 1.10356 134.388 2.43945 134.388 4.00767V33.223C134.388 45.5945 124.239 55.7008 111.815 55.7008C99.3913 55.7008 89.2422 45.5945 89.2422 33.223V4.06575C89.2422 2.43945 87.9006 1.16164 86.3257 1.16164C84.7509 1.16164 83.4093 2.49753 83.4093 4.06575V33.2811C83.4093 48.9052 96.1832 61.6252 111.874 61.6252C127.564 61.6252 140.338 48.9052 140.338 33.2811V4.06575C140.221 2.43945 138.879 1.10356 137.305 1.10356Z" fill="black"/>
<path d="M27.9975 84.9162H33.4221V103.038H34.8803V84.9162H40.3048V83.5803H27.9975V84.9162Z" fill="black"/>
<path d="M65.3276 92.3507H54.5952V83.5803H53.1953V103.038H54.5952V93.6866H65.3276V103.038H66.7275V83.5803H65.3276V92.3507Z" fill="black"/>
<path d="M79.618 103.038H89.5921V101.702H81.0179V93.977H88.8338V92.6411H81.0179V84.9162H89.5921V83.5803H79.618V103.038Z" fill="black"/>
<path d="M114.148 89.2723C114.148 85.6712 111.757 83.6384 107.674 83.6384H102.599V103.096H103.999V95.0225H108.024L112.982 103.096H114.673L109.599 94.8482C112.457 94.2093 114.148 92.2345 114.148 89.2723ZM103.941 84.9743H107.616C111.057 84.9743 112.69 86.3102 112.69 89.2143C112.69 92.0022 110.882 93.5123 107.674 93.5123H103.941V84.9743Z" fill="black"/>
<path d="M133.63 84.1611L126.397 103.038H127.914L129.897 97.9266H138.529L140.454 103.038H142.029L134.796 84.1611H133.63ZM130.422 96.5326L134.213 86.6006L138.005 96.5326H130.422Z" fill="black"/>
<path d="M159.586 83.5803H154.453V103.038H155.853V94.674H159.586C164.894 94.674 166.002 91.6537 166.002 89.1562C165.944 86.6006 164.835 83.5803 159.586 83.5803ZM155.853 84.9743H159.586C163.027 84.9743 164.602 86.2521 164.602 89.0981C164.602 91.886 163.027 93.2219 159.586 93.2219H155.853V84.9743Z" fill="black"/>
<path d="M190.442 89.2723C190.442 85.6712 188.05 83.6384 183.967 83.6384H178.893V103.096H180.292V95.0225H184.317L189.275 103.096H190.967L185.892 94.8482C188.75 94.2093 190.442 92.2345 190.442 89.2723ZM180.234 84.9743H183.909C187.35 84.9743 188.983 86.3102 188.983 89.2143C188.983 92.0022 187.175 93.5123 183.967 93.5123H180.234V84.9743Z" fill="black"/>
<path d="M212.315 83.406C206.89 83.406 202.982 87.588 202.982 93.28C202.982 99.0301 206.89 103.154 212.315 103.154C217.739 103.154 221.647 98.9721 221.647 93.28C221.647 87.588 217.739 83.406 212.315 83.406ZM212.315 84.8C216.981 84.8 220.247 88.343 220.247 93.3381C220.247 98.3912 216.981 101.876 212.315 101.876C207.648 101.876 204.382 98.3331 204.382 93.3381C204.44 88.2849 207.707 84.8 212.315 84.8Z" fill="black"/>
<path d="M252.269 89.2723C252.269 85.6712 249.878 83.6384 245.795 83.6384H240.72V103.096H242.12V95.0225H246.145L251.103 103.096H252.794L247.72 94.8482C250.578 94.2093 252.269 92.2345 252.269 89.2723ZM242.062 84.9743H245.737C249.178 84.9743 250.811 86.3102 250.811 89.2143C250.811 92.0022 249.003 93.5123 245.795 93.5123H242.062V84.9743Z" fill="black"/>
<path d="M263.293 98.217L266.385 93.3962H264.985L262.594 97.1134L260.144 93.3962H258.744L261.835 98.1589L258.686 103.096H260.085L262.535 99.2625L265.043 103.096H266.443L263.293 98.217Z" fill="black"/>
<path d="M271.284 7.26028C271.284 3.6011 273.909 0.696991 277.642 0.696991C281.375 0.696991 284 3.6011 284 7.26028C284 10.9195 281.375 13.8236 277.642 13.8236C273.851 13.8236 271.284 10.9775 271.284 7.26028ZM271.926 7.26028C271.926 10.571 274.259 13.1847 277.584 13.1847C280.967 13.1847 283.242 10.629 283.242 7.26028C283.242 3.89151 280.909 1.3359 277.584 1.3359C274.259 1.39398 271.926 3.94959 271.926 7.26028ZM278.167 7.66686L280.5 10.9195L279.742 10.9775L277.351 7.72494H275.951V10.9775H275.309V3.6011H278.167C279.567 3.6011 280.442 4.29809 280.442 5.63398C280.442 6.91179 279.567 7.66686 278.167 7.66686ZM276.009 4.24001V7.02795H278.109C279.1 7.02795 279.742 6.62138 279.742 5.63398C279.742 4.64658 279.042 4.24001 278.109 4.24001H276.009Z" fill="black"/>
</svg>
